<svg width="72" height="72" viewBox="0 0 72 72" fill="none" xmlns="http://www.w3.org/2000/svg">
<path d="M14.2675 45.7142C14.3723 46.0565 14.8146 46.1519 15.0536 45.8823C17.0682 43.619 24.8583 35.9415 38.5391 35.0017C54.614 33.8981 72.2506 28.5958 64.2132 13.1307C56.1779 -2.33227 25.3677 -6.309 8.84841 13.1307C-6.46757 31.1578 0.0940273 53.3627 13.4101 64.9527C13.9405 65.4133 14.7077 64.7619 14.3241 64.1769C9.45217 56.7151 -0.453123 37.9848 10.5716 22.4119C19.3616 9.99623 35.7824 4.70636 49.3542 13.0291C50.8133 13.9232 52.2199 14.9459 53.3792 16.2051C54.3037 17.2112 55.7691 19.0388 55.4966 20.5075C55.1947 22.138 52.9621 22.3226 51.6309 22.3579C46.5283 22.4907 42.1595 22.0945 37.0549 22.1463C33.2039 22.1857 28.5395 22.5674 24.8268 23.7893C21.2022 24.9821 17.8837 27.3283 15.6846 30.4317C12.7728 34.5433 12.6428 39.3311 13.8042 44.0588C13.9405 44.6148 14.0935 45.1686 14.2633 45.7163L14.2675 45.7142Z" fill="url(#paint0_linear_49_5)"/>
<path d="M18.0808 59.5135C17.9361 58.9762 18.4476 58.5261 18.8984 58.858C21.9087 61.0756 28.856 64.8967 40.1051 63.9425C54.484 62.7227 70.4142 51.2157 69.909 27.7017C69.8943 27.042 70.8608 26.9404 70.9844 27.5897C71.9949 32.8796 72.7622 40.7915 70.6909 48.4795C67.1188 61.7352 51.7147 71.535 39.6607 71.9748C28.3739 72.3876 20.2966 67.7138 18.0829 59.5135H18.0808Z" fill="url(#paint1_linear_49_5)"/>
<defs>
<linearGradient id="paint0_linear_49_5" x1="-0.000336172" y1="36.0019" x2="72.0011" y2="36.0019" gradientUnits="userSpaceOnUse">
<stop stop-color="#073E98"/>
<stop offset="0.25" stop-color="#0E56A1"/>
<stop offset="0.76" stop-color="#2093BB"/>
<stop offset="1" stop-color="#2AB2C8"/>
</linearGradient>
<linearGradient id="paint1_linear_49_5" x1="18.0556" y1="49.5769" x2="71.9991" y2="49.5769" gradientUnits="userSpaceOnUse">
<stop stop-color="#2DCED9"/>
<stop offset="0.16" stop-color="#45CDC3"/>
<stop offset="0.48" stop-color="#82CA8C"/>
<stop offset="0.96" stop-color="#E5C635"/>
<stop offset="1" stop-color="#EFC62D"/>
</linearGradient>
</defs>
</svg>
